<?xml version="1.0" encoding="UTF-8"?>
<svg xmlns="http://www.w3.org/2000/svg" xmlns:xlink="http://www.w3.org/1999/xlink" width="1080" height="1080" viewBox="0 0 1080 1080">
<defs>
<g>
<g id="glyph-0-0">
<path d="M 3.296875 0.140625 C 2.410156 0.140625 1.765625 -0.0078125 1.359375 -0.3125 C 0.960938 -0.613281 0.765625 -0.957031 0.765625 -1.34375 C 0.765625 -1.613281 0.84375 -1.820312 1 -1.96875 C 1.15625 -2.125 1.359375 -2.203125 1.609375 -2.203125 C 1.609375 -1.734375 1.753906 -1.347656 2.046875 -1.046875 C 2.347656 -0.742188 2.769531 -0.59375 3.3125 -0.59375 C 3.664062 -0.59375 3.988281 -0.660156 4.28125 -0.796875 C 4.582031 -0.929688 4.828125 -1.15625 5.015625 -1.46875 C 5.203125 -1.78125 5.296875 -2.203125 5.296875 -2.734375 C 5.296875 -3.296875 5.078125 -3.742188 4.640625 -4.078125 C 4.210938 -4.410156 3.625 -4.578125 2.875 -4.578125 L 2.453125 -4.578125 L 2.453125 -5.265625 L 2.875 -5.265625 C 3.269531 -5.265625 3.625 -5.347656 3.9375 -5.515625 C 4.25 -5.679688 4.5 -5.921875 4.6875 -6.234375 C 4.875 -6.546875 4.96875 -6.910156 4.96875 -7.328125 C 4.96875 -7.847656 4.859375 -8.253906 4.640625 -8.546875 C 4.421875 -8.835938 4.054688 -8.984375 3.546875 -8.984375 C 3.148438 -8.984375 2.84375 -8.890625 2.625 -8.703125 C 2.414062 -8.515625 2.269531 -8.269531 2.1875 -7.96875 C 2.113281 -7.675781 2.078125 -7.351562 2.078125 -7 C 1.753906 -7 1.484375 -7.054688 1.265625 -7.171875 C 1.046875 -7.296875 0.9375 -7.523438 0.9375 -7.859375 C 0.9375 -8.378906 1.15625 -8.804688 1.59375 -9.140625 C 2.03125 -9.484375 2.679688 -9.65625 3.546875 -9.65625 C 4.390625 -9.65625 5.066406 -9.46875 5.578125 -9.09375 C 6.085938 -8.726562 6.34375 -8.207031 6.34375 -7.53125 C 6.34375 -7.132812 6.25 -6.769531 6.0625 -6.4375 C 5.875 -6.101562 5.617188 -5.816406 5.296875 -5.578125 C 4.984375 -5.335938 4.625 -5.171875 4.21875 -5.078125 C 4.457031 -5.046875 4.71875 -4.988281 5 -4.90625 C 5.289062 -4.820312 5.5625 -4.691406 5.8125 -4.515625 C 6.070312 -4.335938 6.28125 -4.101562 6.4375 -3.8125 C 6.59375 -3.53125 6.671875 -3.164062 6.671875 -2.71875 C 6.671875 -2.1875 6.566406 -1.734375 6.359375 -1.359375 C 6.160156 -0.992188 5.890625 -0.703125 5.546875 -0.484375 C 5.210938 -0.265625 4.847656 -0.101562 4.453125 0 C 4.054688 0.09375 3.671875 0.140625 3.296875 0.140625 Z "/>
</g>
<g id="glyph-0-1">
<path d="M 0.5 0 L 0.5 -0.5625 L 0.6875 -0.5625 C 0.988281 -0.5625 1.242188 -0.613281 1.453125 -0.71875 C 1.660156 -0.832031 1.765625 -1.097656 1.765625 -1.515625 L 1.765625 -8.046875 C 1.765625 -8.441406 1.65625 -8.691406 1.4375 -8.796875 C 1.226562 -8.898438 0.976562 -8.953125 0.6875 -8.953125 L 0.5 -8.953125 L 0.5 -9.515625 L 4.578125 -9.515625 C 5.960938 -9.515625 7.035156 -9.097656 7.796875 -8.265625 C 8.554688 -7.441406 8.9375 -6.273438 8.9375 -4.765625 C 8.9375 -3.796875 8.769531 -2.953125 8.4375 -2.234375 C 8.113281 -1.523438 7.628906 -0.972656 6.984375 -0.578125 C 6.347656 -0.191406 5.546875 0 4.578125 0 Z M 4.28125 -0.6875 C 5.332031 -0.6875 6.125 -1.035156 6.65625 -1.734375 C 7.1875 -2.441406 7.453125 -3.453125 7.453125 -4.765625 C 7.453125 -6.085938 7.1875 -7.097656 6.65625 -7.796875 C 6.132812 -8.492188 5.347656 -8.84375 4.296875 -8.84375 L 3.125 -8.84375 L 3.125 -0.6875 Z "/>
</g>
<g id="glyph-0-2">
<path d="M 1.921875 -5.390625 C 1.691406 -5.390625 1.492188 -5.457031 1.328125 -5.59375 C 1.160156 -5.726562 1.078125 -5.960938 1.078125 -6.296875 C 1.078125 -6.648438 1.160156 -6.890625 1.328125 -7.015625 C 1.492188 -7.140625 1.691406 -7.203125 1.921875 -7.203125 C 2.148438 -7.203125 2.347656 -7.140625 2.515625 -7.015625 C 2.679688 -6.890625 2.765625 -6.648438 2.765625 -6.296875 C 2.765625 -5.960938 2.679688 -5.726562 2.515625 -5.59375 C 2.347656 -5.457031 2.148438 -5.390625 1.921875 -5.390625 Z M 1.921875 0.09375 C 1.691406 0.09375 1.492188 0.0234375 1.328125 -0.109375 C 1.160156 -0.242188 1.078125 -0.476562 1.078125 -0.8125 C 1.078125 -1.15625 1.160156 -1.390625 1.328125 -1.515625 C 1.492188 -1.648438 1.691406 -1.71875 1.921875 -1.71875 C 2.148438 -1.71875 2.347656 -1.648438 2.515625 -1.515625 C 2.679688 -1.390625 2.765625 -1.15625 2.765625 -0.8125 C 2.765625 -0.476562 2.679688 -0.242188 2.515625 -0.109375 C 2.347656 0.0234375 2.148438 0.09375 1.921875 0.09375 Z "/>
</g>
<g id="glyph-0-3">
</g>
<g id="glyph-0-4">
<path d="M 3.765625 0.140625 C 3.179688 0.140625 2.660156 0.015625 2.203125 -0.234375 C 1.742188 -0.484375 1.382812 -0.875 1.125 -1.40625 C 0.863281 -1.945312 0.734375 -2.65625 0.734375 -3.53125 C 0.734375 -4.476562 0.863281 -5.222656 1.125 -5.765625 C 1.382812 -6.316406 1.738281 -6.707031 2.1875 -6.9375 C 2.632812 -7.164062 3.140625 -7.28125 3.703125 -7.28125 C 4.078125 -7.28125 4.441406 -7.226562 4.796875 -7.125 C 5.148438 -7.03125 5.441406 -6.882812 5.671875 -6.6875 C 5.910156 -6.488281 6.03125 -6.234375 6.03125 -5.921875 C 6.03125 -5.617188 5.925781 -5.398438 5.71875 -5.265625 C 5.519531 -5.140625 5.226562 -5.078125 4.84375 -5.078125 C 4.84375 -5.492188 4.765625 -5.851562 4.609375 -6.15625 C 4.453125 -6.457031 4.148438 -6.609375 3.703125 -6.609375 C 3.367188 -6.609375 3.070312 -6.519531 2.8125 -6.34375 C 2.5625 -6.164062 2.367188 -5.851562 2.234375 -5.40625 C 2.097656 -4.96875 2.03125 -4.347656 2.03125 -3.546875 C 2.03125 -2.597656 2.1875 -1.890625 2.5 -1.421875 C 2.8125 -0.960938 3.320312 -0.734375 4.03125 -0.734375 C 4.457031 -0.734375 4.820312 -0.816406 5.125 -0.984375 C 5.425781 -1.160156 5.65625 -1.390625 5.8125 -1.671875 C 5.957031 -1.546875 6.03125 -1.367188 6.03125 -1.140625 C 6.03125 -0.941406 5.945312 -0.742188 5.78125 -0.546875 C 5.613281 -0.347656 5.363281 -0.179688 5.03125 -0.046875 C 4.695312 0.078125 4.273438 0.140625 3.765625 0.140625 Z "/>
</g>
<g id="glyph-0-5">
<path d="M 3.828125 0.140625 C 2.867188 0.140625 2.113281 -0.164062 1.5625 -0.78125 C 1.007812 -1.394531 0.734375 -2.328125 0.734375 -3.578125 C 0.734375 -4.828125 0.992188 -5.753906 1.515625 -6.359375 C 2.046875 -6.972656 2.828125 -7.28125 3.859375 -7.28125 C 4.816406 -7.28125 5.570312 -6.972656 6.125 -6.359375 C 6.675781 -5.753906 6.953125 -4.828125 6.953125 -3.578125 C 6.953125 -2.328125 6.6875 -1.394531 6.15625 -0.78125 C 5.632812 -0.164062 4.859375 0.140625 3.828125 0.140625 Z M 3.859375 -0.5625 C 4.515625 -0.5625 4.976562 -0.816406 5.25 -1.328125 C 5.53125 -1.835938 5.671875 -2.585938 5.671875 -3.578125 C 5.671875 -4.578125 5.53125 -5.328125 5.25 -5.828125 C 4.976562 -6.328125 4.507812 -6.578125 3.84375 -6.578125 C 3.175781 -6.578125 2.707031 -6.328125 2.4375 -5.828125 C 2.164062 -5.328125 2.03125 -4.578125 2.03125 -3.578125 C 2.03125 -2.585938 2.164062 -1.835938 2.4375 -1.328125 C 2.71875 -0.816406 3.191406 -0.5625 3.859375 -0.5625 Z "/>
</g>
<g id="glyph-0-6">
<path d="M 0.171875 0 L 0.171875 -0.5625 L 0.34375 -0.5625 C 0.644531 -0.5625 0.898438 -0.613281 1.109375 -0.71875 C 1.328125 -0.832031 1.4375 -1.097656 1.4375 -1.515625 L 1.4375 -8.65625 C 1.4375 -9.050781 1.328125 -9.300781 1.109375 -9.40625 C 0.890625 -9.507812 0.632812 -9.5625 0.34375 -9.5625 L 0.171875 -9.5625 L 0.171875 -10.125 L 2.6875 -10.125 L 2.6875 -1.515625 C 2.6875 -1.097656 2.789062 -0.832031 3 -0.71875 C 3.21875 -0.613281 3.476562 -0.5625 3.78125 -0.5625 L 3.953125 -0.5625 L 3.953125 0 Z "/>
</g>
<g id="glyph-0-7">
<path d="M 0.4375 0 L 0.4375 -0.5625 L 0.484375 -0.5625 C 0.785156 -0.5625 1.039062 -0.613281 1.25 -0.71875 C 1.46875 -0.832031 1.578125 -1.097656 1.578125 -1.515625 L 1.578125 -5.671875 C 1.578125 -6.066406 1.46875 -6.316406 1.25 -6.421875 C 1.03125 -6.523438 0.773438 -6.578125 0.484375 -6.578125 L 0.4375 -6.578125 L 0.4375 -7.140625 L 2.5 -7.140625 L 2.75 -5.828125 L 2.8125 -5.828125 C 2.925781 -6.085938 3.050781 -6.328125 3.1875 -6.546875 C 3.320312 -6.773438 3.5 -6.953125 3.71875 -7.078125 C 3.9375 -7.210938 4.242188 -7.28125 4.640625 -7.28125 C 5.128906 -7.28125 5.488281 -7.191406 5.71875 -7.015625 C 5.957031 -6.847656 6.078125 -6.609375 6.078125 -6.296875 C 6.078125 -6.023438 5.976562 -5.800781 5.78125 -5.625 C 5.59375 -5.445312 5.28125 -5.359375 4.84375 -5.359375 C 4.84375 -5.722656 4.785156 -5.984375 4.671875 -6.140625 C 4.566406 -6.304688 4.382812 -6.390625 4.125 -6.390625 C 3.882812 -6.390625 3.675781 -6.289062 3.5 -6.09375 C 3.332031 -5.90625 3.195312 -5.660156 3.09375 -5.359375 C 3 -5.054688 2.929688 -4.742188 2.890625 -4.421875 C 2.847656 -4.097656 2.828125 -3.804688 2.828125 -3.546875 L 2.828125 -1.453125 C 2.828125 -1.054688 2.9375 -0.804688 3.15625 -0.703125 C 3.375 -0.609375 3.628906 -0.5625 3.921875 -0.5625 L 4.296875 -0.5625 L 4.296875 0 Z "/>
</g>
<g id="glyph-0-8">
<path d="M 0.859375 -5.671875 L 0.859375 -6.46875 L 6.578125 -6.46875 L 6.578125 -5.671875 Z M 0.859375 -3.046875 L 0.859375 -3.84375 L 6.578125 -3.84375 L 6.578125 -3.046875 Z "/>
</g>
<g id="glyph-0-9">
<path d="M 0.5 0 L 0.5 -0.5625 L 0.6875 -0.5625 C 0.988281 -0.5625 1.242188 -0.613281 1.453125 -0.71875 C 1.660156 -0.832031 1.765625 -1.097656 1.765625 -1.515625 L 1.765625 -8.046875 C 1.765625 -8.441406 1.65625 -8.691406 1.4375 -8.796875 C 1.226562 -8.898438 0.976562 -8.953125 0.6875 -8.953125 L 0.5 -8.953125 L 0.5 -9.515625 L 4.25 -9.515625 C 5.375 -9.515625 6.203125 -9.265625 6.734375 -8.765625 C 7.265625 -8.273438 7.53125 -7.597656 7.53125 -6.734375 C 7.53125 -6.203125 7.414062 -5.707031 7.1875 -5.25 C 6.957031 -4.789062 6.582031 -4.414062 6.0625 -4.125 C 5.539062 -3.84375 4.835938 -3.703125 3.953125 -3.703125 L 3.125 -3.703125 L 3.125 -1.453125 C 3.125 -1.054688 3.226562 -0.804688 3.4375 -0.703125 C 3.65625 -0.609375 3.914062 -0.5625 4.21875 -0.5625 L 4.65625 -0.5625 L 4.65625 0 Z M 3.828125 -4.328125 C 4.628906 -4.328125 5.207031 -4.503906 5.5625 -4.859375 C 5.914062 -5.222656 6.09375 -5.828125 6.09375 -6.671875 C 6.09375 -7.421875 5.9375 -7.972656 5.625 -8.328125 C 5.3125 -8.691406 4.78125 -8.875 4.03125 -8.875 L 3.125 -8.875 L 3.125 -4.328125 Z "/>
</g>
<g id="glyph-0-10">
<path d="M 4.1875 1.703125 C 3.363281 1.378906 2.703125 0.960938 2.203125 0.453125 C 1.703125 -0.0546875 1.335938 -0.695312 1.109375 -1.46875 C 0.878906 -2.238281 0.765625 -3.15625 0.765625 -4.21875 C 0.765625 -5.289062 0.878906 -6.207031 1.109375 -6.96875 C 1.335938 -7.726562 1.703125 -8.363281 2.203125 -8.875 C 2.703125 -9.394531 3.363281 -9.8125 4.1875 -10.125 L 4.1875 -9.53125 C 3.570312 -9.164062 3.117188 -8.703125 2.828125 -8.140625 C 2.546875 -7.578125 2.359375 -6.960938 2.265625 -6.296875 C 2.179688 -5.628906 2.140625 -4.9375 2.140625 -4.21875 C 2.140625 -3.519531 2.179688 -2.832031 2.265625 -2.15625 C 2.359375 -1.476562 2.546875 -0.859375 2.828125 -0.296875 C 3.117188 0.253906 3.570312 0.71875 4.1875 1.09375 Z "/>
</g>
<g id="glyph-0-11">
<path d="M 0.0625 0 L 0.0625 -0.5625 L 0.1875 -0.5625 C 0.507812 -0.5625 0.765625 -0.617188 0.953125 -0.734375 C 1.148438 -0.859375 1.378906 -1.082031 1.640625 -1.40625 L 3.3125 -3.578125 L 1.640625 -5.875 C 1.441406 -6.101562 1.25 -6.273438 1.0625 -6.390625 C 0.882812 -6.515625 0.695312 -6.578125 0.5 -6.578125 L 0.3125 -6.578125 L 0.3125 -7.140625 L 3.703125 -7.140625 L 3.703125 -6.578125 L 3.671875 -6.578125 C 3.367188 -6.578125 3.164062 -6.539062 3.0625 -6.46875 C 2.957031 -6.394531 2.90625 -6.304688 2.90625 -6.203125 C 2.90625 -6.109375 2.929688 -6.015625 2.984375 -5.921875 C 3.035156 -5.835938 3.113281 -5.722656 3.21875 -5.578125 L 4.09375 -4.390625 L 4.78125 -5.390625 C 4.882812 -5.535156 4.96875 -5.675781 5.03125 -5.8125 C 5.09375 -5.957031 5.125 -6.085938 5.125 -6.203125 C 5.125 -6.359375 5.050781 -6.457031 4.90625 -6.5 C 4.769531 -6.550781 4.597656 -6.578125 4.390625 -6.578125 L 4.359375 -6.578125 L 4.359375 -7.140625 L 7.28125 -7.140625 L 7.28125 -6.578125 L 7.15625 -6.578125 C 6.894531 -6.578125 6.671875 -6.523438 6.484375 -6.421875 C 6.296875 -6.328125 6.070312 -6.097656 5.8125 -5.734375 L 4.4375 -3.90625 L 6.390625 -1.265625 C 6.585938 -1.003906 6.769531 -0.820312 6.9375 -0.71875 C 7.113281 -0.613281 7.289062 -0.5625 7.46875 -0.5625 L 7.640625 -0.5625 L 7.640625 0 L 4.203125 0 L 4.203125 -0.5625 L 4.265625 -0.5625 C 4.796875 -0.5625 5.0625 -0.707031 5.0625 -1 C 5.0625 -1.09375 5.023438 -1.195312 4.953125 -1.3125 C 4.890625 -1.4375 4.757812 -1.640625 4.5625 -1.921875 L 3.671875 -3.125 L 2.734375 -1.8125 C 2.648438 -1.707031 2.566406 -1.578125 2.484375 -1.421875 C 2.410156 -1.265625 2.375 -1.113281 2.375 -0.96875 C 2.375 -0.832031 2.4375 -0.726562 2.5625 -0.65625 C 2.695312 -0.59375 2.910156 -0.5625 3.203125 -0.5625 L 3.234375 -0.5625 L 3.234375 0 Z "/>
</g>
<g id="glyph-0-12">
<path d="M 0.40625 1.5 C 1.25 1.21875 1.671875 0.816406 1.671875 0.296875 C 1.671875 0.160156 1.617188 0.0546875 1.515625 -0.015625 C 1.421875 -0.0859375 1.304688 -0.15625 1.171875 -0.21875 C 1.046875 -0.28125 0.929688 -0.363281 0.828125 -0.46875 C 0.734375 -0.570312 0.6875 -0.726562 0.6875 -0.9375 C 0.6875 -1.1875 0.769531 -1.378906 0.9375 -1.515625 C 1.101562 -1.648438 1.3125 -1.71875 1.5625 -1.71875 C 1.832031 -1.71875 2.066406 -1.617188 2.265625 -1.421875 C 2.472656 -1.222656 2.578125 -0.9375 2.578125 -0.5625 C 2.578125 0.0078125 2.410156 0.53125 2.078125 1 C 1.753906 1.46875 1.195312 1.816406 0.40625 2.046875 Z "/>
</g>
<g id="glyph-0-13">
<path d="M 0.5 2.578125 C 1.101562 2.578125 1.597656 2.457031 1.984375 2.21875 C 2.378906 1.988281 2.695312 1.675781 2.9375 1.28125 C 3.175781 0.882812 3.363281 0.441406 3.5 -0.046875 L 1.046875 -5.875 C 0.921875 -6.15625 0.796875 -6.34375 0.671875 -6.4375 C 0.546875 -6.53125 0.351562 -6.578125 0.09375 -6.578125 L 0.046875 -6.578125 L 0.046875 -7.140625 L 3.25 -7.140625 L 3.25 -6.578125 L 3.21875 -6.578125 C 2.675781 -6.578125 2.40625 -6.363281 2.40625 -5.9375 C 2.40625 -5.789062 2.441406 -5.628906 2.515625 -5.453125 L 3.484375 -3.078125 C 3.578125 -2.867188 3.664062 -2.644531 3.75 -2.40625 C 3.832031 -2.164062 3.910156 -1.929688 3.984375 -1.703125 C 4.054688 -1.484375 4.101562 -1.296875 4.125 -1.140625 C 4.1875 -1.398438 4.269531 -1.664062 4.375 -1.9375 C 4.476562 -2.21875 4.578125 -2.492188 4.671875 -2.765625 L 5.5625 -5.359375 C 5.632812 -5.566406 5.671875 -5.757812 5.671875 -5.9375 C 5.671875 -6.363281 5.378906 -6.578125 4.796875 -6.578125 L 4.765625 -6.578125 L 4.765625 -7.140625 L 7.53125 -7.140625 L 7.53125 -6.578125 L 7.484375 -6.578125 C 7.234375 -6.578125 7.039062 -6.507812 6.90625 -6.375 C 6.769531 -6.25 6.628906 -5.972656 6.484375 -5.546875 L 4.453125 0.046875 C 4.222656 0.703125 4 1.234375 3.78125 1.640625 C 3.570312 2.046875 3.332031 2.363281 3.0625 2.59375 C 2.800781 2.820312 2.472656 2.976562 2.078125 3.0625 C 1.691406 3.15625 1.207031 3.203125 0.625 3.203125 L 0.5 3.203125 Z "/>
</g>
<g id="glyph-0-14">
<path d="M 0.5625 0 L 0.5625 -0.53125 L 4.421875 -6.390625 L 2.34375 -6.390625 C 1.988281 -6.390625 1.753906 -6.296875 1.640625 -6.109375 C 1.523438 -5.929688 1.414062 -5.660156 1.3125 -5.296875 L 1.3125 -5.25 L 0.75 -5.25 L 0.875 -7.140625 L 5.984375 -7.140625 L 5.984375 -6.59375 L 2.109375 -0.765625 L 4.53125 -0.765625 C 4.84375 -0.765625 5.054688 -0.875 5.171875 -1.09375 C 5.285156 -1.3125 5.375 -1.566406 5.4375 -1.859375 L 5.5 -2.15625 L 6.0625 -2.15625 L 6 0 Z "/>
</g>
<g id="glyph-0-15">
<path d="M 0.421875 1.09375 C 1.035156 0.71875 1.488281 0.253906 1.78125 -0.296875 C 2.070312 -0.859375 2.257812 -1.476562 2.34375 -2.15625 C 2.425781 -2.832031 2.46875 -3.519531 2.46875 -4.21875 C 2.46875 -4.9375 2.425781 -5.628906 2.34375 -6.296875 C 2.257812 -6.960938 2.070312 -7.578125 1.78125 -8.140625 C 1.488281 -8.703125 1.035156 -9.164062 0.421875 -9.53125 L 0.421875 -10.125 C 1.242188 -9.8125 1.90625 -9.394531 2.40625 -8.875 C 2.90625 -8.363281 3.269531 -7.726562 3.5 -6.96875 C 3.738281 -6.207031 3.859375 -5.289062 3.859375 -4.21875 C 3.859375 -3.15625 3.738281 -2.238281 3.5 -1.46875 C 3.269531 -0.695312 2.90625 -0.0546875 2.40625 0.453125 C 1.90625 0.960938 1.242188 1.378906 0.421875 1.703125 Z "/>
</g>
</g>
</defs>
<g fill="rgb(100%, 100%, 100%)" fill-opacity="1">
<use xlink:href="#glyph-0-0" x="30" y="34.25293"/>
<use xlink:href="#glyph-0-1" x="37" y="34.25293"/>
<use xlink:href="#glyph-0-2" x="47" y="34.25293"/>
<use xlink:href="#glyph-0-3" x="51" y="34.25293"/>
<use xlink:href="#glyph-0-4" x="54" y="34.25293"/>
<use xlink:href="#glyph-0-5" x="61" y="34.25293"/>
<use xlink:href="#glyph-0-6" x="69" y="34.25293"/>
<use xlink:href="#glyph-0-5" x="73" y="34.25293"/>
<use xlink:href="#glyph-0-7" x="81" y="34.25293"/>
<use xlink:href="#glyph-0-3" x="87" y="34.25293"/>
<use xlink:href="#glyph-0-8" x="90" y="34.25293"/>
<use xlink:href="#glyph-0-3" x="97" y="34.25293"/>
<use xlink:href="#glyph-0-9" x="100" y="34.25293"/>
<use xlink:href="#glyph-0-10" x="108" y="34.25293"/>
<use xlink:href="#glyph-0-11" x="113" y="34.25293"/>
<use xlink:href="#glyph-0-12" x="121" y="34.25293"/>
<use xlink:href="#glyph-0-13" x="124" y="34.25293"/>
<use xlink:href="#glyph-0-12" x="130" y="34.25293"/>
<use xlink:href="#glyph-0-14" x="133" y="34.25293"/>
<use xlink:href="#glyph-0-15" x="140" y="34.25293"/>
</g>
</svg>
